<?xml version="1.0" encoding="UTF-8" standalone="no"?>
<!-- Created with Inkscape (http://www.inkscape.org/) -->

<svg
   xmlns:dc="http://purl.org/dc/elements/1.1/"
   xmlns:cc="http://creativecommons.org/ns#"
   xmlns:rdf="http://www.w3.org/1999/02/22-rdf-syntax-ns#"
   xmlns:svg="http://www.w3.org/2000/svg"
   xmlns="http://www.w3.org/2000/svg"
   xmlns:sodipodi="http://sodipodi.sourceforge.net/DTD/sodipodi-0.dtd"
   xmlns:inkscape="http://www.inkscape.org/namespaces/inkscape"
   width="210mm"
   height="297mm"
   viewBox="0 0 210 297"
   version="1.1"
   id="svg8"
   inkscape:version="0.92.2 (5c3e80d, 2017-08-06)"
   sodipodi:docname="Lab3.svg">
  <defs
     id="defs2" />
  <sodipodi:namedview
     id="base"
     pagecolor="#ffffff"
     bordercolor="#666666"
     borderopacity="1.0"
     inkscape:pageopacity="0.0"
     inkscape:pageshadow="2"
     inkscape:zoom="1.9987352"
     inkscape:cx="337.57852"
     inkscape:cy="724.34467"
     inkscape:document-units="mm"
     inkscape:current-layer="layer1"
     showgrid="true"
     showguides="true"
     inkscape:guide-bbox="true"
     inkscape:object-paths="false"
     inkscape:snap-intersection-paths="true"
     inkscape:snap-smooth-nodes="true"
     inkscape:snap-bbox="true"
     inkscape:snap-bbox-midpoints="true"
     inkscape:window-width="1920"
     inkscape:window-height="1017"
     inkscape:window-x="-8"
     inkscape:window-y="-8"
     inkscape:window-maximized="1">
    <inkscape:grid
       type="xygrid"
       id="grid4508"
       units="mm"
       spacingx="1"
       spacingy="1"
       empspacing="4" />
    <sodipodi:guide
       position="52,292"
       orientation="0,1"
       id="guide4543"
       inkscape:locked="false" />
    <sodipodi:guide
       position="28,244"
       orientation="0,1"
       id="guide4545"
       inkscape:locked="false" />
    <sodipodi:guide
       position="230,209"
       orientation="0,1"
       id="guide4547"
       inkscape:locked="false" />
    <sodipodi:guide
       position="222.06164,285.75001"
       orientation="1,0"
       id="guide4549"
       inkscape:locked="false" />
    <sodipodi:guide
       position="218.06164,264.75538"
       orientation="1,0"
       id="guide4553"
       inkscape:locked="false" />
    <sodipodi:guide
       position="178,217"
       orientation="1,0"
       id="guide4594"
       inkscape:locked="false" />
    <sodipodi:guide
       position="126,225"
       orientation="0,1"
       id="guide4626"
       inkscape:locked="false" />
    <sodipodi:guide
       position="202.06164,164.96909"
       orientation="1,0"
       id="guide4630"
       inkscape:locked="false" />
    <sodipodi:guide
       position="8,240"
       orientation="1,0"
       id="guide4724"
       inkscape:locked="false" />
    <sodipodi:guide
       position="32.8119,181.80122"
       orientation="0,1"
       id="guide4771"
       inkscape:locked="false" />
    <sodipodi:guide
       position="143,197.00001"
       orientation="0,1"
       id="guide4775"
       inkscape:locked="false" />
    <sodipodi:guide
       position="265,199"
       orientation="1,0"
       id="guide4796"
       inkscape:locked="false" />
    <sodipodi:guide
       position="295.99999,201.00002"
       orientation="1,0"
       id="guide4808"
       inkscape:locked="false" />
    <sodipodi:guide
       position="47.999999,240.00001"
       orientation="1,0"
       id="guide4554"
       inkscape:locked="false" />
  </sodipodi:namedview>
  <metadata
     id="metadata5">
    <rdf:RDF>
      <cc:Work
         rdf:about="">
        <dc:format>image/svg+xml</dc:format>
        <dc:type
           rdf:resource="http://purl.org/dc/dcmitype/StillImage" />
        <dc:title />
      </cc:Work>
    </rdf:RDF>
  </metadata>
  <g
     inkscape:label="Layer 1"
     inkscape:groupmode="layer"
     id="layer1">
    <g
       transform="matrix(0,0.09279762,-0.12674595,0,189.72989,74.63678)"
       style="image-rendering:optimizeQuality;shape-rendering:geometricPrecision;text-rendering:geometricPrecision;fill:#ff0000;fill-opacity:1"
       id="g8">
      <path
         inkscape:connector-curvature="0"
         class="fil0"
         d="m 482,441 h 12 v -11 l 18,-18 h 23 v 29 7 94 h 14 v -19 h 67 v 135 h 3 v 4 h 5 v -14 h 41 v -5 c 0,0 0,-33 2,-53 2,-20 -3,-46 -3,-52 -1,-6 2,-55 4,-70 2,-15 -1,-86 -2,-95 -1,-10 -10,-32 -10,-32 0,0 -14,-14 -10,-24 5,-10 11,-18 11,-18 0,0 -7,-21 -6,-33 0,-12 -1,-18 -1,-18 0,0 -4,-8 -4,-12 0,-2 -1,-5 -1,-5 0,0 -4,-7 -4,-13 1,-7 3,-10 3,-10 0,0 -3,-3 -3,-6 -4,-1 -7,-3 -7,-5 0,-2 0,-5 0,-8 0,-3 5,-4 11,-5 -19,-16 -5,-35 8,-38 -3,3 -4,17 10,11 2,2 16,19 -1,27 7,0 10,2 10,5 0,3 0,6 0,8 0,3 -3,4 -9,5 0,4 -3,5 -4,8 0,0 6,6 6,13 -1,6 0,16 0,20 0,4 9,24 10,36 0,2 0,5 0,8 1,3 3,10 4,11 2,2 3,7 3,12 1,5 6,11 8,13 3,2 6,3 6,3 l 1,-11 c 0,0 -1,-3 -2,-11 -1,-1 -2,-3 -2,-4 -1,0 -1,-1 -1,-1 0,0 -6,-1 -10,-1 -1,-2 -1,-3 -2,-5 5,-1 12,0 12,0 v -2 l -13,-6 c -1,0 -2,-3 -2,-4 l 19,5 2,-3 c 0,0 -14,-21 -12,-20 1,0 20,17 20,17 3,-1 3,-1 6,-1 l 4,-27 4,27 c 2,0 4,0 6,1 2,-2 15,-14 19,-17 1,-1 -9,17 -11,20 1,0 1,1 2,2 l 26,-6 -22,12 c 1,1 0,1 1,2 8,1 23,2 24,3 1,0 -16,3 -24,4 0,1 -1,1 -1,3 0,3 1,7 0,9 -1,3 -2,11 0,16 1,3 3,10 5,15 5,2 11,4 13,8 6,8 4,21 10,26 5,6 15,11 15,11 l 11,-14 25,10 3,4 -7,13 c 0,0 4,4 2,8 -2,4 -5,12 -10,14 -4,3 -7,6 -7,6 -9,25 -8,22 -28,33 -1,0 6,51 4,52 -3,2 -6,10 -6,10 0,0 5,78 1,82 -3,5 -4,10 -4,10 l 1,29 1,3 h 56 v 14 h 18 v 39 H 619 610 605 3 c 0,-30 0,-60 0,-91 h 6 v -43 h 25 v 43 h 6 v 36 h 8 v 34 h 6 V 500 h 63 v 48 h 11 V 410 h 5 v -56 h 6 v -29 h 15 l 15,15 v 14 h 8 v 56 h 12 v 169 h 10 v 67 h 7 v -90 h 13 v -35 h 10 v -38 h 6 v -56 h 4 v 56 h 6 v 38 h 11 v 35 h 12 v 80 h 26 v 27 h 9 v -36 h 36 v 30 h 6 v 23 h 6 V 548 h 41 v 88 h 10 V 467 h 5 v -5 h 4 v -4 h 15 v -19 h 2 v -24 h 1 v 24 h 1 v 19 h 16 v 4 h 3 v 5 h 6 v 86 h 14 v 91 h 13 z M 637,190 c 9,-3 19,-4 28,-3 1,0 6,3 0,3 -4,-1 -34,1 -28,0 z m 17,61 c -2,1 -2,25 1,28 4,7 2,12 6,2 1,-3 -5,-21 -4,-26 0,-2 -3,-4 -3,-4 z m 1,-88 c 2,3 6,3 9,7 3,4 -4,9 -5,4 -1,-4 -2,-6 -3,-9 -1,-1 -1,-2 -1,-2 z m -8,-9 c -5,9 -7,18 4,25 0,0 8,2 4,-4 -4,-8 -7,-11 -8,-21 z m 91,205 c 0,8 -16,40 -22,48 -6,8 -17,22 -27,24 -4,1 -20,4 -14,-6 2,-5 29,-15 39,-31 4,-9 24,-25 24,-35 z m -45,-22 c 6,-8 9,2 25,2 7,0 15,5 14,13 -2,12 -60,73 -57,53 0,-4 16,-12 21,-19 7,-10 6,-9 9,-20 1,-1 -30,37 -31,18 0,-3 16,-10 19,-16 2,-2 16,-26 3,-13 -3,4 -10,13 -10,11 -1,-5 4,-25 7,-29 z m -10,-13 c 5,13 -23,38 -6,35 6,-1 17,-26 7,-34 z m -35,-2 c 0,-1 4,3 7,3 15,0 24,-25 24,-21 0,13 -7,23 -23,23 -4,1 -8,-4 -8,-5 z m 96,27 c 0,18 1,27 -6,44 -11,23 -15,29 -36,43 -7,6 -21,11 -23,12 1,1 32,10 40,4 12,-10 14,-12 20,-27 5,-14 10,-56 7,-71 -1,-2 -2,-3 -2,-5 z m -24,-39 c 0,1 -1,1 -2,1 -2,0 -3,1 -3,1 l 2,2 v 1 c -1,1 -3,0 -4,2 0,1 4,-1 5,2 0,0 2,3 2,4 0,1 -1,1 -2,1 -2,0 -9,-1 -11,-3 -1,-3 -2,-9 -1,-10 1,-1 6,-4 7,-4 1,0 2,-3 1,-4 0,-1 -5,-2 -5,-2 0,0 5,-12 18,-1 0,0 -6,1 -7,2 -1,1 0,7 0,8 z m 5,5 c -1,1 -4,-7 -2,-7 0,0 5,0 5,1 0,1 -1,6 -3,6 z m -2,-22 c -11,-2 -11,1 -20,7 -3,2 -4,-4 -4,-4 3,-5 11,-8 14,-8 3,-1 15,1 17,3 3,2 5,6 4,7 0,1 -10,-5 -11,-5 z"
         id="path6"
         style="fill:#ff0000;fill-opacity:1" />
    </g>
    <g
       id="g887"
       transform="rotate(-90,113.5,117.5)"
       style="stroke-width:0.35277778;stroke-miterlimit:4;stroke-dasharray:none">
      <path
         sodipodi:nodetypes="ccccccccccccccccc"
         inkscape:connector-curvature="0"
         id="rect4504"
         d="M 10.000004,12.000004 10,8 h 53 v 4.000001 L 73,12 87.25,12.000001 122,12 V 7.9999908 L 130,8 V 91.999996 96 h -8 v -4 l -59,-9e-6 v 4 H 10 Z"
         style="opacity:1;fill:none;fill-opacity:1;fill-rule:nonzero;stroke:#000000;stroke-width:0.35277778;stroke-linecap:round;stroke-linejoin:round;stroke-miterlimit:4;stroke-dasharray:none;stroke-dashoffset:0;stroke-opacity:1" />
      <path
         sodipodi:nodetypes="ccccccccccccccc"
         inkscape:connector-curvature="0"
         id="rect4510"
         d="M 118.00024,32.000001 118,72 h 3.99976 L 122,32.000001 Z M 121.99976,72 l 4.8e-4,16 H 126 l -4.8e-4,-16 z M 118,72 h -4.00027 l 4.8e-4,16 h 4.00027 z"
         style="opacity:1;fill:none;fill-opacity:1;fill-rule:nonzero;stroke:#000000;stroke-width:0.35277778;stroke-linecap:round;stroke-linejoin:round;stroke-miterlimit:4;stroke-dasharray:none;stroke-dashoffset:0;stroke-opacity:1" />
      <rect
         transform="scale(1,-1)"
         style="opacity:1;fill:none;fill-opacity:1;fill-rule:nonzero;stroke:#000000;stroke-width:0.35277778;stroke-linecap:round;stroke-linejoin:round;stroke-miterlimit:4;stroke-dasharray:none;stroke-dashoffset:0;stroke-opacity:1"
         id="rect4516"
         width="4"
         height="16.000002"
         x="122"
         y="-32" />
      <rect
         transform="scale(1,-1)"
         style="opacity:1;fill:none;fill-opacity:1;fill-rule:nonzero;stroke:#000000;stroke-width:0.35277778;stroke-linecap:round;stroke-linejoin:round;stroke-miterlimit:4;stroke-dasharray:none;stroke-dashoffset:0;stroke-opacity:1"
         id="rect4520"
         width="4"
         height="16"
         x="114"
         y="-32" />
    </g>
    <g
       id="g4749"
       transform="rotate(90,164.65615,-64.656146)"
       style="stroke-width:0.35277778;stroke-miterlimit:4;stroke-dasharray:none">
      <path
         style="opacity:1;fill:none;fill-opacity:1;fill-rule:nonzero;stroke:#000000;stroke-width:1.33333337;stroke-linecap:round;stroke-linejoin:round;stroke-miterlimit:4;stroke-dasharray:none;stroke-dashoffset:0;stroke-opacity:1"
         d="m 944.88146,30.237146 v 15.117188 h -79.36964 v 151.181106 151.1811 h 79.36963 v 15.11718 h 56.69335 v -15.11718 l 15.1186,2.6e-4 v -15.11914 -60.47071 h 15.1171 v -75.59179 -75.58985 h -15.1171 V 60.472656 45.353516 l -15.1186,8.18e-4 V 30.237146 Z"
         transform="matrix(0.26458333,0,0,0.26458333,5.3122924,0)"
         id="rect4506"
         inkscape:connector-curvature="0"
         sodipodi:nodetypes="ccccccccccccccccccccc" />
      <rect
         y="45.999996"
         x="252.31236"
         height="12"
         width="12"
         id="rect4578"
         style="opacity:1;fill:none;fill-opacity:1;fill-rule:nonzero;stroke:#000000;stroke-width:0.35277778;stroke-linecap:round;stroke-linejoin:round;stroke-miterlimit:4;stroke-dasharray:none;stroke-dashoffset:0;stroke-opacity:1" />
    </g>
    <g
       id="g4759"
       transform="rotate(-90,202.24272,206.24278)"
       style="stroke-width:0.35277778;stroke-miterlimit:4;stroke-dasharray:none">
      <path
         style="opacity:1;fill:none;fill-opacity:1;fill-rule:nonzero;stroke:#000000;stroke-width:1.33333337;stroke-linecap:round;stroke-linejoin:round;stroke-miterlimit:4;stroke-dasharray:none;stroke-dashoffset:0;stroke-opacity:1"
         d="m 1058.2677,30.237146 v 15.117188 h -15.1181 v 151.181106 151.1811 h 15.1181 v 15.11718 h 56.6933 v -15.11718 l 79.3691,2.6e-4 v -15.11914 h 15.1191 V 272.125 h -15.1191 V 120.94531 h 15.1191 V 60.472656 h -15.1191 v -15.11914 l -79.3691,8.18e-4 V 30.237146 Z"
         transform="matrix(0.26458333,0,0,0.26458333,35.4854,0)"
         id="path4564"
         inkscape:connector-curvature="0"
         sodipodi:nodetypes="cccccccccccccccccccccc" />
      <g
         transform="translate(133.42376,-162.88447)"
         id="g4660"
         style="stroke-width:0.35277778;stroke-miterlimit:4;stroke-dasharray:none">
        <rect
           y="207.38446"
           x="198.56137"
           height="1.5"
           width="7"
           id="rect4596"
           style="opacity:1;fill:none;fill-opacity:1;fill-rule:nonzero;stroke:#000000;stroke-width:0.35277778;stroke-linecap:round;stroke-linejoin:round;stroke-miterlimit:4;stroke-dasharray:none;stroke-dashoffset:0;stroke-opacity:1" />
        <rect
           style="opacity:1;fill:none;fill-opacity:1;fill-rule:nonzero;stroke:#000000;stroke-width:0.35277778;stroke-linecap:round;stroke-linejoin:round;stroke-miterlimit:4;stroke-dasharray:none;stroke-dashoffset:0;stroke-opacity:1"
           id="rect4598"
           width="7"
           height="1.5"
           x="198.56137"
           y="220.88446" />
      </g>
    </g>
    <g
       id="g881"
       transform="rotate(180,159.06164,83)"
       style="stroke-width:0.35277778;stroke-miterlimit:4;stroke-dasharray:none">
      <path
         sodipodi:nodetypes="ccccccccccccccccccccccccccccc"
         inkscape:connector-curvature="0"
         style="opacity:1;fill:none;fill-opacity:1;fill-rule:nonzero;stroke:#000000;stroke-width:0.35277778;stroke-linecap:round;stroke-linejoin:round;stroke-miterlimit:4;stroke-dasharray:none;stroke-dashoffset:0;stroke-opacity:1"
         d="m 218.06133,71.999998 h 4.00027 l 2.7e-4,16 h -4.00027 l 4e-5,4.000003 h 4 V 151 h -3.93836 v 7 3 h -4.06164 L 143,100 v -11.999999 -36 -36 -12.0000004 l 71.06164,-60.9999996 h 4.06164 v 3 7 h 3.93836 v 59 h -4 l -4e-5,4 h 4.00027 l -2.7e-4,16 h -4.00027 V 52 Z"
         id="path4562" />
      <path
         id="path4570"
         d="m 169.87528,52 a 8.5000038,8.5000038 0 0 1 -8.50001,8.500004 8.5000038,8.5000038 0 0 1 -8.5,-8.500004 8.5000038,8.5000038 0 0 1 8.5,-8.500004 A 8.5000038,8.5000038 0 0 1 169.87528,52 Z"
         style="opacity:1;fill:none;fill-opacity:1;fill-rule:nonzero;stroke:#000000;stroke-width:0.35277778;stroke-linecap:round;stroke-linejoin:round;stroke-miterlimit:4;stroke-dasharray:none;stroke-dashoffset:0;stroke-opacity:1"
         inkscape:connector-curvature="0" />
      <path
         inkscape:connector-curvature="0"
         id="path4584"
         d="m 205.68646,52.000001 a 3.6248183,3.6248183 0 0 1 -3.62482,3.624818 3.6248183,3.6248183 0 0 1 -3.62482,-3.624818 3.6248183,3.6248183 0 0 1 3.62482,-3.624818 3.6248183,3.6248183 0 0 1 3.62482,3.624818 z"
         style="opacity:1;fill:none;fill-opacity:1;fill-rule:nonzero;stroke:#000000;stroke-width:0.35277778;stroke-linecap:round;stroke-linejoin:round;stroke-miterlimit:4;stroke-dasharray:none;stroke-dashoffset:0;stroke-opacity:1" />
      <path
         inkscape:connector-curvature="0"
         id="path4765"
         d="m 143.06164,91.999991 h 75"
         style="fill:none;fill-rule:evenodd;stroke:#0000ff;stroke-width:0.35277778;stroke-linecap:butt;stroke-linejoin:miter;stroke-miterlimit:4;stroke-dasharray:none;stroke-dashoffset:0.03439583;stroke-opacity:1" />
      <path
         id="rect4790"
         d="m 199,92 h 15 v 4 h -15 z"
         style="opacity:1;fill:none;fill-opacity:1;fill-rule:nonzero;stroke:#000000;stroke-width:0.35277778;stroke-linecap:round;stroke-linejoin:round;stroke-miterlimit:4;stroke-dasharray:none;stroke-dashoffset:0.13;stroke-opacity:1"
         inkscape:connector-curvature="0" />
      <path
         id="rect4792"
         d="m 182,95.999992 h 15 v 4 h -15 z"
         style="opacity:1;fill:none;fill-opacity:1;fill-rule:nonzero;stroke:#000000;stroke-width:0.35277778;stroke-linecap:round;stroke-linejoin:round;stroke-miterlimit:4;stroke-dasharray:none;stroke-dashoffset:0.13;stroke-opacity:1"
         inkscape:connector-curvature="0" />
      <path
         style="fill:none;fill-rule:evenodd;stroke:#0000ff;stroke-width:0.35277778;stroke-linecap:butt;stroke-linejoin:miter;stroke-miterlimit:4;stroke-dasharray:none;stroke-dashoffset:0.03439583;stroke-opacity:1"
         d="m 143,12.000001 h 75"
         id="path4821"
         inkscape:connector-curvature="0" />
      <path
         id="rect4823"
         d="m 199,-11.99999 h 15 v 3.9999995 h -15 z"
         style="opacity:1;fill:none;fill-opacity:1;fill-rule:nonzero;stroke:#000000;stroke-width:0.35277778;stroke-linecap:round;stroke-linejoin:round;stroke-miterlimit:4;stroke-dasharray:none;stroke-dashoffset:0.13;stroke-opacity:1"
         transform="scale(1,-1)"
         inkscape:connector-curvature="0" />
      <path
         id="rect4825"
         d="m 182,-7.9999909 h 15 v 4 h -15 z"
         style="opacity:1;fill:none;fill-opacity:1;fill-rule:nonzero;stroke:#000000;stroke-width:0.35277778;stroke-linecap:round;stroke-linejoin:round;stroke-miterlimit:4;stroke-dasharray:none;stroke-dashoffset:0.13;stroke-opacity:1"
         transform="scale(1,-1)"
         inkscape:connector-curvature="0" />
    </g>
    <flowRoot
       xml:space="preserve"
       id="flowRoot4590"
       style="font-style:normal;font-weight:normal;font-size:40px;line-height:1.25;font-family:sans-serif;letter-spacing:0px;word-spacing:0px;fill:#000000;fill-opacity:1;stroke:none"
       transform="scale(0.26458333)"><flowRegion
         id="flowRegion4592"><rect
           id="rect4594"
           width="15.118111"
           height="105.82677"
           x="498.89764"
           y="381.73227" /></flowRegion><flowPara
         id="flowPara4596">Rohanrrrr</flowPara></flowRoot>    <text
       xml:space="preserve"
       style="font-style:normal;font-weight:normal;font-size:10.58333302px;line-height:1.25;font-family:sans-serif;letter-spacing:0px;word-spacing:0px;fill:#000000;fill-opacity:1;stroke:none;stroke-width:0.26458332"
       x="132"
       y="120.99999"
       id="text4600"><tspan
         sodipodi:role="line"
         id="tspan4598"
         x="132"
         y="130.65549"
         style="stroke-width:0.26458332" /></text>
  </g>
</svg>
